HIERARCHY
ROOT root
{
	OFFSET 0.000000 0.000000 0.000000
	CHANNELS 6 Xposition Yposition Zposition Zrotation Yrotation Xrotation
	JOINT lhip
	{
		OFFSET 0.058581 -0.082280 -0.017664
		CHANNELS 3 Zrotation Yrotation Xrotation
		JOINT lknee
		{
			OFFSET 0.043451 -0.386469 0.008037
			CHANNELS 3 Zrotation Yrotation Xrotation
			JOINT lankle
			{
				OFFSET -0.014790 -0.426874 -0.037428
				CHANNELS 3 Zrotation Yrotation Xrotation
				JOINT ltoe
				{
					OFFSET 0.041054 -0.060286 0.122042
					CHANNELS 3 Zrotation Yrotation Xrotation
					End Site
					{
						OFFSET 0.000000 0.000000 0.000000
					}
				}
			}
		}
	}
	JOINT rhip
	{
		OFFSET -0.060310 -0.090513 -0.013543
		CHANNELS 3 Zrotation Yrotation Xrotation
		JOINT rknee
		{
			OFFSET -0.043257 -0.383688 -0.004843
			CHANNELS 3 Zrotation Yrotation Xrotation
			JOINT rankle
			{
				OFFSET 0.019056 -0.420046 -0.034562
				CHANNELS 3 Zrotation Yrotation Xrotation
				JOINT rtoe
				{
					OFFSET -0.034840 -0.062106 0.130323
					CHANNELS 3 Zrotation Yrotation Xrotation
					End Site
					{
						OFFSET 0.000000 0.000000 0.000000
					}
				}
			}
		}
	}
	JOINT lowerback
	{
		OFFSET 0.004439 0.124404 -0.038385
		CHANNELS 3 Zrotation Yrotation Xrotation
		JOINT upperback
		{
			OFFSET 0.004488 0.137956 0.026820
			CHANNELS 3 Zrotation Yrotation Xrotation
			JOINT chest
			{
				OFFSET -0.002265 0.056032 0.002855
				CHANNELS 3 Zrotation Yrotation Xrotation
				JOINT lowerneck
				{
					OFFSET -0.013390 0.211636 -0.033468
					CHANNELS 3 Zrotation Yrotation Xrotation
					JOINT upperneck
					{
						OFFSET 0.010113 0.088937 0.050410
						CHANNELS 3 Zrotation Yrotation Xrotation
						End Site
						{
							OFFSET 0.000000 0.000000 0.000000
						}
					}
				}
				JOINT lclavicle
				{
					OFFSET 0.071702 0.114000 -0.018898
					CHANNELS 3 Zrotation Yrotation Xrotation
					JOINT lshoulder
					{
						OFFSET 0.122921 0.045205 -0.019046
						CHANNELS 3 Zrotation Yrotation Xrotation
						JOINT lelbow
						{
							OFFSET 0.255332 -0.015649 -0.022946
							CHANNELS 3 Zrotation Yrotation Xrotation
							JOINT lwrist
							{
								OFFSET 0.265709 0.012698 -0.007375
								CHANNELS 3 Zrotation Yrotation Xrotation
								End Site
								{
									OFFSET 0.000000 0.000000 0.000000
								}
							}
						}
					}
				}
				JOINT rclavicle
				{
					OFFSET -0.082954 0.112472 -0.023707
					CHANNELS 3 Zrotation Yrotation Xrotation
					JOINT rshoulder
					{
						OFFSET -0.113228 0.046853 -0.008472
						CHANNELS 3 Zrotation Yrotation Xrotation
						JOINT relbow
						{
							OFFSET -0.260127 -0.014369 -0.031269
							CHANNELS 3 Zrotation Yrotation Xrotation
							JOINT rwrist
							{
								OFFSET -0.269108 0.006794 -0.006027
								CHANNELS 3 Zrotation Yrotation Xrotation
								End Site
								{
									OFFSET 0.000000 0.000000 0.000000
								}
							}
						}
					}
				}
			}
		}
	}
}
MOTION
Frames: 11
Frame Time: 0.033333
0.228665 0.179950 0.986318 93.213147 2.241708 85.696839 7.359759 -0.233285 -9.222443 -7.218990 -4.442399 28.212752 0.928790 9.445631 -21.078158 0.000000 -0.000000 0.000000 -7.966999 0.373316 -1.315055 -1.813616 12.628154 17.762619 8.258608 -1.111049 -15.894857 0.000000 -0.000000 0.000000 -1.858986 4.624862 11.774798 1.175511 0.011436 0.891711 -1.021083 2.425975 0.155975 3.663464 -2.339221 -11.480016 -0.002597 -12.559181 11.263611 -20.962800 2.854063 -1.686038 -32.369180 -6.576035 2.435246 38.227079 -60.650696 -27.725947 15.644343 -11.454043 -10.884220 23.331094 5.933258 -2.206997 33.728959 10.087590 4.658139 -60.733745 53.702935 -51.937135 -7.391054 13.092689 -11.427498 
0.232363 0.187768 0.986726 94.700119 2.466573 85.231403 6.519232 -1.768400 -8.893680 -6.567797 -4.825962 28.578298 1.222016 9.592735 -21.505408 0.000000 -0.000000 0.000000 -7.896592 -0.023643 -0.810246 -2.013456 11.743800 19.063178 8.652672 -1.705080 -15.538301 0.000000 -0.000000 0.000000 -1.713764 5.205246 11.572799 0.746073 0.368694 0.641151 -1.306778 2.777939 0.219719 3.746473 -3.013244 -11.226470 -0.203155 -12.468389 12.016466 -20.534118 2.383863 -2.569302 -32.773893 -7.580859 3.043703 47.429249 -64.495865 -35.782092 17.627889 -11.240737 -11.967669 21.922510 7.074424 -3.756748 32.021588 12.354711 4.170699 -71.678297 55.599042 -61.181963 -7.364071 13.626624 -11.122389 
0.235610 0.194922 0.987683 95.584549 2.615463 84.995849 5.859470 -2.760078 -8.422526 -6.218445 -5.091223 28.368402 1.889308 9.868720 -21.553947 0.000000 -0.000000 0.000000 -7.847559 0.063585 -1.537995 -1.960912 11.276116 21.689744 9.205970 -2.186885 -14.685478 0.000000 -0.000000 0.000000 -1.959915 5.817489 10.748618 0.245651 1.441730 0.796878 -1.585271 3.606501 0.146838 4.346192 -3.822953 -10.711057 -0.234867 -12.548640 12.796767 -19.752229 2.151486 -3.377866 -33.269854 -8.577138 3.835194 63.074362 -68.307793 -49.758118 18.201410 -10.943757 -13.794072 20.111070 8.568105 -4.549976 30.123719 14.480379 3.283428 -81.449386 55.387201 -69.247713 -6.981015 14.118729 -9.679244 
0.238689 0.201496 0.989446 96.888177 2.663991 84.751371 5.432488 -2.845122 -7.719672 -6.375012 -5.507829 27.466025 2.507735 9.672641 -21.269336 0.000000 -0.000000 0.000000 -7.981464 -0.259645 -3.021971 -1.690966 11.069426 25.723086 9.898097 -2.151263 -13.415702 0.000000 -0.000000 0.000000 -2.223089 6.078303 10.215875 -0.460789 2.662026 0.706032 -2.003998 4.116273 0.188215 5.215570 -4.583657 -10.296166 -0.101961 -12.602945 13.924209 -18.643050 2.389742 -3.796498 -33.109619 -9.677523 4.090233 85.210667 -70.107152 -70.201342 18.724634 -10.994660 -15.904144 17.952286 9.779878 -5.624678 28.932386 16.696245 2.486498 -87.736234 54.847463 -73.743760 -6.020698 14.484880 -7.893675 
0.241508 0.207874 0.993081 99.886583 2.814873 84.536926 5.615751 -2.374160 -6.999957 -7.549092 -6.254152 26.034703 3.030418 8.540566 -20.654957 0.000000 -0.000000 0.000000 -8.315057 -0.797534 -4.163452 -0.932328 10.279841 29.834925 10.428509 -2.281891 -11.278282 0.000000 -0.000000 0.000000 -2.565515 5.822888 9.407844 -0.730736 3.064999 1.433961 -2.344831 4.338690 0.029510 5.911470 -5.843044 -9.297253 0.155814 -13.137240 13.748105 -17.671317 2.346119 -3.908401 -32.451350 -11.063583 3.697718 105.478377 -68.925941 -88.904092 18.863164 -10.851509 -17.222374 15.822702 10.763815 -6.247587 27.837334 17.961931 1.512406 -92.126758 54.235680 -76.736765 -4.996688 14.670691 -6.514759 
0.244522 0.214143 0.997580 104.597896 3.310056 84.138813 6.231551 -1.260166 -6.067712 -8.733301 -8.023886 24.327998 2.991421 6.744874 -19.858876 0.000000 -0.000000 0.000000 -8.555633 -1.256547 -4.025064 -0.152953 8.351529 32.885813 10.765068 -2.466426 -9.054185 0.000000 -0.000000 0.000000 -2.992139 4.794258 9.327788 -0.599411 2.744621 1.839872 -2.229522 4.104018 0.052724 6.228191 -7.294588 -8.534746 0.264256 -13.789161 13.765323 -16.725999 2.005061 -4.141550 -32.254158 -12.667774 3.168763 119.839919 -66.029600 -101.631166 18.772429 -11.100016 -18.781437 14.562731 11.040957 -6.906635 26.659738 18.462327 0.775566 -95.916423 54.518014 -79.900199 -4.850114 15.141284 -6.374528 
0.248130 0.220882 1.001948 109.812983 3.749455 83.874611 6.597175 -1.137009 -5.334919 -8.835200 -8.466400 22.525474 3.017526 6.061715 -18.618047 0.000000 -0.000000 0.000000 -8.650845 -1.831653 -3.182290 0.141357 6.980577 34.714778 10.975249 -2.662193 -6.542001 0.000000 -0.000000 0.000000 -3.430628 4.279001 9.464552 -0.335584 1.934157 1.943642 -2.019781 3.452715 0.099869 6.356487 -8.710658 -7.795317 0.510390 -14.742455 14.485856 -16.440741 0.848264 -4.325013 -31.765416 -15.065453 2.857850 128.499936 -62.662345 -110.496979 20.306414 -11.180459 -19.541692 14.058795 10.722766 -7.309102 26.489118 17.532049 1.097860 -100.897445 54.238915 -84.626717 -5.428462 15.406292 -6.044902 
0.251233 0.226853 1.006380 114.240184 4.120130 84.040614 6.582080 -1.735771 -5.020694 -8.785826 -9.093941 21.110434 2.787676 5.169905 -17.538157 0.000000 -0.000000 0.000000 -8.392826 -2.066139 -2.928907 -0.066091 6.245380 36.212908 11.611684 -3.060528 -3.924448 0.000000 -0.000000 0.000000 -3.953171 4.131363 9.276616 0.012474 1.174395 2.151364 -1.883374 2.746800 -0.055265 6.564300 -9.813837 -7.189470 1.050604 -15.563783 15.034675 -16.875368 -0.779816 -4.723922 -30.996527 -17.729575 2.651448 134.164489 -59.229364 -114.888036 20.672710 -11.643973 -19.470862 14.373174 10.203191 -7.647572 27.355058 15.962200 2.174829 -106.212577 53.637984 -88.991943 -5.315933 15.678298 -7.305671 
0.254758 0.231286 1.010530 117.470901 4.659986 84.257729 6.542649 -2.380049 -4.553854 -8.195837 -10.106037 19.684995 2.713341 4.208311 -16.722465 0.000000 -0.000000 0.000000 -7.614715 -1.452142 -3.106262 -0.354757 5.430465 37.897219 12.462540 -2.821232 -0.499179 0.000000 -0.000000 0.000000 -4.587183 3.822469 9.057876 0.477948 0.792371 2.440614 -1.647532 2.338149 -0.329472 6.650927 -10.485286 -6.951748 1.524655 -16.763396 15.584342 -17.306331 -2.267409 -5.415647 -31.000000 -20.756709 2.574306 138.277179 -56.161338 -117.588914 20.440603 -12.455135 -18.805087 15.218332 9.554255 -7.519648 28.794866 14.856274 3.186996 -110.900986 52.817843 -92.503445 -4.883472 15.875550 -8.167109 
0.256899 0.234957 1.013747 119.455185 4.993747 84.253068 6.095233 -3.646241 -3.782630 -7.126374 -10.700388 18.298249 2.787916 4.008231 -16.011815 0.000000 -0.000000 0.000000 -7.011829 -0.475837 -3.743755 -0.734080 4.719864 39.820096 13.217952 -2.923992 2.448106 0.000000 -0.000000 0.000000 -5.139328 3.568024 9.344093 0.709194 0.428881 2.522424 -1.495883 1.950197 -0.371981 6.882278 -10.451581 -7.278824 1.856677 -17.331478 15.911338 -17.380360 -3.688088 -5.903527 -32.115964 -23.925016 2.957918 140.989297 -52.929981 -119.613658 21.469928 -12.979598 -17.794922 15.844641 9.397399 -7.505589 31.405262 14.250792 4.753653 -113.871052 51.819222 -94.265945 -5.003191 16.159331 -8.414191 
0.258535 0.237941 1.015742 120.316423 5.195986 84.128538 5.458073 -4.496040 -3.083078 -6.050748 -11.020197 17.461896 3.207355 4.196909 -15.439606 0.000000 -0.000000 0.000000 -6.530455 0.282427 -4.760436 -1.281807 4.524028 41.877283 13.500578 -2.883642 5.278055 0.000000 -0.000000 0.000000 -5.612914 3.368942 9.904440 0.866803 0.133569 2.382621 -1.364432 1.604519 -0.539665 6.753699 -10.268326 -7.537270 2.156049 -17.350053 16.196740 -17.580819 -5.385042 -6.137353 -33.000989 -26.764311 3.126163 142.672307 -50.372803 -120.390126 22.045766 -13.063564 -17.367744 16.421402 9.796816 -7.241958 34.032070 13.687588 6.218759 -115.229673 51.259647 -94.350766 -5.099440 16.217545 -7.937729 
